# xmcd
#
# Track frame offsets: 
#        150
#        22219
#        34326
#        51197
#        53815
#        65596
#        94845
#        100821
#        129692
#        133790
#        168793
#        207435
#        214832
#
# Disc length: 3689 seconds
#
# Revision: 1
# Processed by: cddbd v1.5.2PL0 Copyright (c) Steve Scherf et al.
# Submitted via: ExactAudioCopy v0.99pb5
#
DISCID=c50e670d
DTITLE=Francois Houle and Benoit Delbecq - Nancali
DYEAR=1997
DGENRE=Avant Garde
TTITLE0=Morning Dance
TTITLE1=Early Dance
TTITLE2=Late Dance
TTITLE3=Rhizome I (for Guillermo Gregorio)
TTITLE4=Synonymes
TTITLE5=Nancali
TTITLE6=Rhizome II (for William O. Smith)
TTITLE7=Sunancali (for Nina and Lucas)
TTITLE8=Rhizome III (for Joelle Leandre)
TTITLE9=Panymes
TTITLE10=Plateaux
TTITLE11=Rhizome IV (for Arnold Schoenberg)
TTITLE12=Eponymes
EXTD=YEAR: 1997
EXTT0=
EXTT1=
EXTT2=
EXTT3=
EXTT4=
EXTT5=
EXTT6=
EXTT7=
EXTT8=
EXTT9=
EXTT10=
EXTT11=
EXTT12=
PLAYORDER=
